<svg width="1200" height="330" viewBox="0 0 1200 330" xmlns="http://www.w3.org/2000/svg" role="img" aria-labelledby="title desc">
  <title id="title">devframe-system banner</title>
  <desc id="desc">GPT Web as an external brain coordinating software tools and coding agents.</desc>
  <defs>
    <linearGradient id="bg" x1="0" y1="0" x2="1" y2="1">
      <stop offset="0%" stop-color="#e8f7ff"/>
      <stop offset="45%" stop-color="#f7fbff"/>
      <stop offset="100%" stop-color="#d8ecff"/>
    </linearGradient>
    <linearGradient id="panel" x1="0" y1="0" x2="1" y2="1">
      <stop offset="0%" stop-color="#1f6feb"/>
      <stop offset="100%" stop-color="#20c997"/>
    </linearGradient>
    <filter id="shadow" x="-20%" y="-20%" width="140%" height="140%">
      <feDropShadow dx="0" dy="16" stdDeviation="18" flood-color="#1f3b57" flood-opacity="0.16"/>
    </filter>
  </defs>
  <rect width="1200" height="330" rx="18" fill="url(#bg)"/>
  <g opacity="0.55">
    <path d="M820 52h210v112H820z" fill="#b8dcff"/>
    <path d="M858 74h250v128H858z" fill="#a7d2ff"/>
    <path d="M900 98h222v154H900z" fill="#91c4ff"/>
  </g>
  <g filter="url(#shadow)">
    <rect x="110" y="78" width="520" height="174" rx="18" fill="#ffffff" opacity="0.92"/>
    <rect x="650" y="84" width="240" height="158" rx="18" fill="url(#panel)" opacity="0.94"/>
    <rect x="914" y="106" width="150" height="44" rx="12" fill="#ffffff" opacity="0.78"/>
    <rect x="934" y="166" width="118" height="44" rx="12" fill="#ffffff" opacity="0.58"/>
  </g>
  <text x="142" y="130" font-family="Inter, Segoe UI, Arial, sans-serif" font-size="54" font-weight="700" fill="#123048">devframe-system</text>
  <text x="144" y="172" font-family="Inter, Segoe UI, Arial, sans-serif" font-size="25" fill="#24506b">GPT Web as an External Brain</text>
  <text x="144" y="214" font-family="Inter, Segoe UI, Arial, sans-serif" font-size="20" fill="#45697f">Raise code quality. Keep direction. Coordinate every agent.</text>
  <g font-family="Inter, Segoe UI, Arial, sans-serif" font-size="20" font-weight="650" fill="#ffffff">
    <text x="690" y="132">GPT Web</text>
    <text x="690" y="174">Direction</text>
    <text x="690" y="216">Evidence</text>
  </g>
  <g stroke="#ffffff" stroke-width="3" fill="none" opacity="0.86">
    <path d="M812 126c34 0 34 48 70 48"/>
    <path d="M812 168c48 0 48-40 104-40"/>
    <path d="M812 210c40 0 52-20 96-20"/>
  </g>
  <g font-family="Inter, Segoe UI, Arial, sans-serif" font-size="15" font-weight="650" fill="#24465d">
    <text x="946" y="134">IDE / CLI</text>
    <text x="966" y="194">Agents</text>
  </g>
</svg>
